<svg width="41" height="35" viewBox="0 0 41 35" fill="none" xmlns="http://www.w3.org/2000/svg">
<g id="Tailwindcss logo" clip-path="url(#clip0_230_2)">
<path id="Vector" d="M20.5 0.0466309C15.0334 0.0466309 11.6166 3.92525 10.25 11.6823C12.3 7.80365 14.6916 6.34919 17.425 7.3189C18.9844 7.87205 20.0991 9.47763 21.333 11.2546C23.3429 14.1496 25.669 17.5001 30.75 17.5001C36.2166 17.5001 39.6334 13.6215 41 5.86445C38.95 9.74307 36.5584 11.1975 33.825 10.2278C32.2656 9.67467 31.1509 8.06908 29.917 6.29215C27.9071 3.3971 25.581 0.0466309 20.5 0.0466309ZM10.25 17.5001C4.78339 17.5001 1.36661 21.3787 0 29.1357C2.05 25.2571 4.44161 23.8026 7.175 24.7724C8.73444 25.3255 9.84913 26.9311 11.083 28.708C13.0929 31.6031 15.419 34.9535 20.5 34.9535C25.9666 34.9535 29.3834 31.0749 30.75 23.3179C28.7 27.1965 26.3084 28.651 23.575 27.6813C22.0156 27.1281 20.9009 25.5225 19.667 23.7456C17.6571 20.8506 15.331 17.5001 10.25 17.5001Z" fill="url(#paint0_linear_230_2)"/>
</g>
<defs>
<linearGradient id="paint0_linear_230_2" x1="-291.579" y1="1715.79" x2="-49.065" y2="3633.59" gradientUnits="userSpaceOnUse">
<stop stop-color="#2298BD"/>
<stop offset="1" stop-color="#0ED7B5"/>
</linearGradient>
<clipPath id="clip0_230_2">
<rect width="41" height="35" fill="white"/>
</clipPath>
</defs>
</svg>
